<?xml version="1.0"?><svg width="321.378" height="887.507" xmlns="http://www.w3.org/2000/svg">
 <title>treble clef</title>
 <metadata id="metadata22">image/svg+xml</metadata>
 <defs>.str0 {stroke:#131516;stroke-width:3}
    .str1 {stroke:#131516;stroke-width:42}
    .fil1 {fill:none}
    .fil0 {fill:#131516}</defs>
 <g>
  <title>Layer 1</title>
  <g transform="matrix(0.215986 0 0 0.215462 -250.44 -1202.59)" id="Layer 1">
   <path d="m2002,7851c-61,17 -116,55 -167,113c-51,59 -76,124 -76,194c0,44 15,94 44,147c29,54 73,93 130,118c19,4 28,14 28,28c0,5 -7,10 -24,14c-91,-23 -166,-72 -224,-145c-58,-74 -88,-158 -90,-254c3,-103 34,-199 93,-287c60,-89 137,-152 231,-189l-69,-355c-154,128 -279,261 -376,401c-97,139 -147,290 -151,453c2,73 17,144 45,212c28,69 70,131 126,188c113,113 260,172 439,178c61,-4 126,-15 196,-33l-155,-783zm72,-10l156,769c154,-62 231,-197 231,-403c-9,-69 -29,-131 -63,-186c-33,-56 -77,-100 -133,-132c-56,-32 -119,-48 -191,-48zm-205,-1040c33,-20 71,-55 112,-104c41,-48 81,-105 119,-169c39,-65 70,-131 93,-198c23,-66 34,-129 34,-187c0,-25 -2,-50 -7,-72c-4,-36 -15,-64 -34,-83c-19,-18 -43,-28 -73,-28c-60,0 -114,37 -162,111c-37,64 -68,140 -90,226c-23,87 -36,173 -38,260c5,99 21,180 46,244zm-63,58c-45,-162 -70,-327 -75,-495c1,-108 12,-209 33,-303c20,-94 49,-175 87,-245c37,-70 80,-123 128,-159c43,-32 74,-49 91,-49c13,0 24,5 34,14c10,9 23,24 39,44c119,169 179,373 179,611c0,113 -15,223 -45,333c-29,109 -72,213 -129,310c-58,98 -126,183 -205,256l81,394c44,-5 74,-9 91,-9c76,0 144,16 207,48c63,32 117,75 161,130c44,54 78,116 102,186c23,70 36,143 36,219c0,118 -31,226 -93,323c-62,97 -155,168 -280,214c8,49 22,120 43,211c20,92 35,165 45,219c10,54 14,106 14,157c0,79 -19,149 -57,211c-39,62 -91,110 -157,144c-65,34 -137,51 -215,51c-110,0 -206,-31 -288,-92c-82,-62 -126,-145 -130,-251c3,-47 14,-91 34,-133c20,-42 47,-76 82,-102c34,-27 75,-41 122,-44c39,0 76,11 111,32c34,22 62,51 83,88c20,37 31,78 31,122c0,59 -20,109 -60,150c-40,41 -91,62 -152,62l-23,0c39,60 103,91 192,91c45,0 91,-10 137,-28c47,-19 86,-44 119,-76c33,-32 55,-66 64,-102c17,-41 25,-98 25,-169c0,-48 -5,-96 -14,-144c-9,-47 -23,-110 -42,-188c-19,-77 -33,-137 -41,-178c-60,15 -122,23 -187,23c-109,0 -212,-22 -309,-67c-97,-45 -182,-107 -256,-187c-73,-80 -130,-170 -171,-272c-40,-101 -61,-207 -62,-317c4,-102 23,-200 59,-292c36,-93 82,-181 139,-263c57,-82 116,-157 177,-224c62,-66 143,-151 245,-254z" stroke-width="53.0222" stroke="#131516" fill="#131516" id="path9" class="fil0 str0"/>
  </g>
 </g>
</svg>