<?xml version="1.0" encoding="UTF-8" standalone="no"?>
<!-- Created with Inkscape (http://www.inkscape.org/) -->

<svg
   xmlns:dc="http://purl.org/dc/elements/1.1/"
   xmlns:cc="http://creativecommons.org/ns#"
   xmlns:rdf="http://www.w3.org/1999/02/22-rdf-syntax-ns#"
   xmlns:svg="http://www.w3.org/2000/svg"
   xmlns="http://www.w3.org/2000/svg"
   xmlns:sodipodi="http://sodipodi.sourceforge.net/DTD/sodipodi-0.dtd"
   xmlns:inkscape="http://www.inkscape.org/namespaces/inkscape"
   width="156.43321"
   height="278.18564"
   id="svg2"
   version="1.1"
   inkscape:version="0.48.4 r9939"
   sodipodi:docname="ear_icon.svg">
  <defs
     id="defs4">
    <inkscape:path-effect
       effect="spiro"
       id="path-effect3273"
       is_visible="true" />
    <inkscape:path-effect
       effect="spiro"
       id="path-effect3253"
       is_visible="true" />
    <inkscape:path-effect
       effect="skeletal"
       id="path-effect3195"
       is_visible="true"
       pattern="m -4,-7 c 0,-2.76 2.24,-5 5,-5 2.76,0 5,2.24 5,5 0,2.76 -2.24,5 -5,5 -2.76,0 -5,-2.24 -5,-5 z"
       copytype="single_stretched"
       prop_scale="1"
       scale_y_rel="false"
       spacing="0"
       normal_offset="0"
       tang_offset="0"
       prop_units="false"
       vertical_pattern="false"
       fuse_tolerance="0" />
    <inkscape:path-effect
       effect="spiro"
       id="path-effect3193"
       is_visible="true" />
    <inkscape:path-effect
       effect="skeletal"
       id="path-effect3189"
       is_visible="true"
       pattern="m -8,-9 c 0,-2.76 2.24,-5 5,-5 2.76,0 5,2.24 5,5 0,2.76 -2.24,5 -5,5 -2.76,0 -5,-2.24 -5,-5 z"
       copytype="single_stretched"
       prop_scale="1"
       scale_y_rel="false"
       spacing="0"
       normal_offset="0"
       tang_offset="0"
       prop_units="false"
       vertical_pattern="false"
       fuse_tolerance="0" />
    <inkscape:path-effect
       effect="spiro"
       id="path-effect3187"
       is_visible="true" />
    <inkscape:path-effect
       effect="skeletal"
       id="path-effect3135"
       is_visible="true"
       pattern="M 0,5 C 0,2.24 2.24,0 5,0 7.76,0 10,2.24 10,5 10,7.76 7.76,10 5,10 2.24,10 0,7.76 0,5 z"
       copytype="single_stretched"
       prop_scale="1"
       scale_y_rel="false"
       spacing="0"
       normal_offset="0"
       tang_offset="0"
       prop_units="false"
       vertical_pattern="false"
       fuse_tolerance="0" />
    <inkscape:path-effect
       effect="spiro"
       id="path-effect3133"
       is_visible="true" />
    <inkscape:path-effect
       effect="skeletal"
       id="path-effect3103"
       is_visible="true"
       pattern="M 0,5 C 0,2.24 2.24,0 5,0 7.76,0 10,2.24 10,5 10,7.76 7.76,10 5,10 2.24,10 0,7.76 0,5 z"
       copytype="single_stretched"
       prop_scale="1"
       scale_y_rel="false"
       spacing="0"
       normal_offset="0"
       tang_offset="0"
       prop_units="false"
       vertical_pattern="false"
       fuse_tolerance="0" />
    <inkscape:path-effect
       effect="spiro"
       id="path-effect3101"
       is_visible="true" />
    <inkscape:path-effect
       effect="skeletal"
       id="path-effect3097"
       is_visible="true"
       pattern="M 0,5 C 0,2.24 2.24,0 5,0 7.76,0 10,2.24 10,5 10,7.76 7.76,10 5,10 2.24,10 0,7.76 0,5 z"
       copytype="single_stretched"
       prop_scale="1"
       scale_y_rel="false"
       spacing="0"
       normal_offset="0"
       tang_offset="0"
       prop_units="false"
       vertical_pattern="false"
       fuse_tolerance="0" />
    <inkscape:path-effect
       effect="spiro"
       id="path-effect3095"
       is_visible="true" />
    <inkscape:path-effect
       effect="skeletal"
       id="path-effect3079"
       is_visible="true"
       pattern="M 0,5 C 0,2.24 2.24,0 5,0 7.76,0 10,2.24 10,5 10,7.76 7.76,10 5,10 2.24,10 0,7.76 0,5 z"
       copytype="single_stretched"
       prop_scale="1"
       scale_y_rel="false"
       spacing="0"
       normal_offset="0"
       tang_offset="0"
       prop_units="false"
       vertical_pattern="false"
       fuse_tolerance="0" />
    <inkscape:path-effect
       effect="spiro"
       id="path-effect3077"
       is_visible="true" />
  </defs>
  <sodipodi:namedview
     id="base"
     pagecolor="#ffffff"
     bordercolor="#666666"
     borderopacity="1.0"
     inkscape:pageopacity="0.0"
     inkscape:pageshadow="2"
     inkscape:zoom="0.4289036"
     inkscape:cx="-96.058137"
     inkscape:cy="226.34902"
     inkscape:document-units="px"
     inkscape:current-layer="layer1"
     showgrid="false"
     showguides="true"
     inkscape:guide-bbox="true"
     inkscape:window-width="1600"
     inkscape:window-height="837"
     inkscape:window-x="-8"
     inkscape:window-y="-8"
     inkscape:window-maximized="1"
     fit-margin-top="0"
     fit-margin-left="0"
     fit-margin-right="0"
     fit-margin-bottom="0" />
  <metadata
     id="metadata7">
    <rdf:RDF>
      <cc:Work
         rdf:about="">
        <dc:format>image/svg+xml</dc:format>
        <dc:type
           rdf:resource="http://purl.org/dc/dcmitype/StillImage" />
        <dc:title></dc:title>
      </cc:Work>
    </rdf:RDF>
  </metadata>
  <g
     inkscape:label="Layer 1"
     inkscape:groupmode="layer"
     id="layer1"
     transform="translate(-384.00835,-449.89154)">
    <path
       style="fill:#000000;fill-rule:evenodd;stroke:none"
       d="m 397.85714,546.6479 c -0.26335,0.0891 -0.91753,-0.90934 -1.78547,-2.99468 -0.86793,-2.08535 -1.94482,-5.2676 -2.78257,-9.54539 -0.83776,-4.27778 -1.43135,-9.66451 -1.13552,-15.97833 0.29582,-6.31381 1.48616,-13.56772 4.33746,-21.19813 2.58547,-6.90365 6.53948,-14.06058 12.11301,-20.75073 5.57352,-6.69014 12.77196,-12.91524 21.54786,-17.62199 7.13023,-3.81532 15.23837,-6.57741 23.93084,-7.86196 8.69246,-1.28456 17.96925,-1.09068 27.20084,1.00651 10e-6,0 10e-6,0 2e-5,0 8.2006,1.8724 16.2777,5.23728 23.70174,10.0278 7.42405,4.79052 14.19397,11.0065 19.67725,18.47479 8.07106,11.05158 13.20528,24.49202 14.99817,38.57337 0.69521,5.45638 0.9178,10.98749 0.70113,16.52983 -0.32613,8.34249 -1.63805,16.52821 -3.68606,24.35628 -3.68345,13.96537 -9.47777,26.69872 -16.17626,38.38154 -6.6985,11.68282 -14.29625,22.31672 -21.85007,32.0764 -7.75488,10.08403 -15.6424,19.47687 -23.63,27.89033 -7.98761,8.41347 -16.0742,15.84819 -24.10352,22.208 -5.9357,4.68642 -11.75702,8.75427 -17.27763,12.42498 -5.52062,3.67072 -10.74148,6.94327 -15.54936,9.93507 -4.80788,2.99179 -9.20401,5.70132 -13.13187,8.16105 -3.92786,2.45973 -7.38886,4.66782 -10.36325,6.597 -1.99814,1.30244 -3.69837,2.44398 -5.0375,3.5943 -0.96357,0.83233 -1.76102,1.65172 -2.39197,2.42435 -0.63094,0.77263 -1.09836,1.49824 -1.45183,2.13872 -0.44589,0.80082 -0.72251,1.46316 -0.93486,1.91084 -0.21234,0.44769 -0.36291,0.68398 -0.49201,0.66862 -0.1291,-0.0154 -0.2354,-0.28269 -0.26792,-0.80894 -0.0325,-0.52624 0.01,-1.31508 0.26963,-2.32588 0.21019,-0.806 0.56077,-1.74245 1.10964,-2.75282 0.54888,-1.01037 1.29901,-2.09472 2.25736,-3.17056 1.31942,-1.4892 3.01704,-2.97477 4.89456,-4.49069 2.78459,-2.25872 6.07222,-4.79497 9.83027,-7.56995 3.75804,-2.77497 7.98784,-5.78678 12.6104,-9.04932 4.62256,-3.26254 9.63896,-6.77418 14.90565,-10.62795 5.26669,-3.85376 10.78438,-8.04845 16.33157,-12.77754 7.52295,-6.39243 15.10552,-13.808 22.64106,-22.17868 7.53555,-8.37068 15.02361,-17.69751 22.48256,-27.72299 7.19914,-9.74066 14.42364,-20.14916 20.73053,-31.34075 6.30688,-11.1916 11.69106,-23.16677 14.95422,-36.08611 1.84064,-7.22175 3.03411,-14.70821 3.33961,-22.26214 0.20296,-5.01845 0.01,-9.99387 -0.61464,-14.86815 -1.60922,-12.54866 -6.03393,-24.47439 -12.99424,-34.09685 -4.67541,-6.50393 -10.53136,-11.99476 -16.97491,-16.27497 -6.44354,-4.2802 -13.47383,-7.34931 -20.60476,-9.10416 -1e-5,0 -1e-5,-10e-6 -2e-5,-10e-6 -8.02298,-1.98504 -16.21127,-2.32571 -23.94455,-1.37076 -7.73329,0.95495 -15.01153,3.20522 -21.44378,6.40769 -7.92518,3.93509 -14.60336,9.3076 -19.89639,15.16392 -5.29302,5.85631 -9.20534,12.19901 -11.90096,18.38532 -2.98403,6.83333 -4.51528,13.47973 -5.23696,19.36 -0.72168,5.88027 -0.63829,11.00737 -0.32249,15.16248 0.3158,4.15511 0.85854,7.35151 1.20103,9.53081 0.34248,2.17929 0.47831,3.3513 0.21496,3.44043 z"
       id="path3131"
       inkscape:path-effect="#path-effect3133;#path-effect3135"
       inkscape:original-d="M 397.85714,546.6479 C 396.10739,513.59914 504.64025,461.64442 520.71429,483.07647 550.1065,522.26609 517.93936,593.71779 495,627.36218 c -12.73951,18.68461 -30.61207,34.1835 -46.42857,50 -16.23638,16.23638 -36.67963,25.34005 -55,38.57143 -3.73231,2.69556 -4.9829,6.89336 -8.57143,9.28572 -0.81682,0.54454 0.24834,3.04966 -0.71429,2.85714"
       inkscape:connector-curvature="0"
       sodipodi:nodetypes="csssssc" />
    <path
       style="fill:#000000;fill-rule:evenodd;stroke:none"
       d="m 495.57143,536.93361 c -0.28059,0.04 -0.61707,-0.40673 -1.04684,-1.26549 -0.42977,-0.85877 -0.95577,-2.13084 -1.68381,-3.72312 -0.72804,-1.59228 -1.66093,-3.50699 -2.92934,-5.6055 -1.26841,-2.09851 -2.87469,-4.38311 -4.93537,-6.63523 -1.86756,-2.04356 -4.11899,-4.06643 -6.76953,-5.87934 -2.65054,-1.81291 -5.70127,-3.41624 -9.0838,-4.56853 -2.4016,-0.78695 -4.96853,-1.37383 -7.5587,-1.57699 -2.59017,-0.20316 -5.2034,-0.0226 -7.64405,0.77601 0,0 -10e-6,0 -10e-6,0 -2.42061,0.70726 -4.75531,2.02875 -6.82055,3.82163 -2.06524,1.79289 -3.86082,4.05671 -5.15693,6.58207 -2.44597,4.72647 -3.15533,10.6969 -2.16296,16.49517 0.1443,0.86687 0.33216,1.73477 0.55921,2.6038 1.15302,4.4132 3.26553,8.70621 5.59979,12.88447 2.99866,5.2834 6.51293,10.42165 9.54152,15.83918 1.67192,2.94986 3.1719,6.01159 4.36938,9.14484 1.19747,3.13325 2.09234,6.33788 2.6031,9.56872 0,10e-6 0,10e-6 0,10e-6 0.60353,3.73042 0.55301,7.48052 -0.0962,10.97291 -0.64917,3.49239 -1.89625,6.72729 -3.62858,9.53801 -1.9769,3.11631 -4.50335,5.51166 -7.1419,7.23567 -2.63854,1.72402 -5.39043,2.7792 -7.97641,3.31328 -2.8916,0.58924 -5.51854,0.52992 -7.72311,0.1812 -2.20457,-0.34871 -3.99263,-0.98596 -5.35447,-1.64641 -1.36184,-0.66045 -2.30309,-1.34358 -2.87486,-1.88838 -0.57177,-0.54481 -0.77807,-0.95098 -0.65706,-1.16798 0.12101,-0.217 0.56435,-0.23932 1.29889,-0.14607 0.73454,0.0933 1.7644,0.29996 3.0809,0.47085 1.3165,0.1709 2.92527,0.30473 4.76549,0.20707 1.84022,-0.0977 3.91767,-0.42741 6.03291,-1.21505 1.89489,-0.69816 3.84433,-1.7784 5.64072,-3.28299 1.79638,-1.5046 3.4416,-3.43521 4.59614,-5.72071 1.08388,-2.0473 1.76274,-4.43605 2.01635,-7.05011 0.25361,-2.61407 0.0819,-5.45399 -0.47704,-8.2989 0,-10e-6 -1e-5,-10e-6 -1e-5,-10e-6 -0.50371,-2.50748 -1.36676,-5.04791 -2.51022,-7.62595 -1.14346,-2.57803 -2.56724,-5.19377 -4.14372,-7.85238 -2.92624,-4.86367 -6.5352,-9.87308 -9.92185,-15.62279 -2.7048,-4.52869 -5.18269,-9.61683 -6.68304,-15.30559 -0.29545,-1.12022 -0.55053,-2.25599 -0.76078,-3.40663 -1.40057,-7.81854 -0.21764,-15.92886 3.36976,-22.74166 1.95543,-3.69343 4.64262,-6.87911 7.76854,-9.36945 3.12592,-2.49035 6.68996,-4.28518 10.43556,-5.27572 0,0 0,0 10e-6,0 3.78593,-0.9158 7.49007,-1.01601 10.95193,-0.58591 3.46186,0.43009 6.68156,1.39015 9.55958,2.64207 4.04934,1.71773 7.5611,3.96021 10.50329,6.41784 2.94219,2.45764 5.31635,5.1302 7.1776,7.77427 2.0508,2.9166 3.47213,5.77944 4.45112,8.35444 0.979,2.57499 1.51838,4.86433 1.79935,6.7396 0.28098,1.87526 0.30617,3.33884 0.21052,4.33303 -0.0956,0.99419 -0.30998,1.52073 -0.59057,1.56075 z"
       id="path3185"
       inkscape:path-effect="#path-effect3187;#path-effect3189"
       inkscape:original-d="m 495.57143,536.93361 c 2.12423,-19.05326 -6.13934,-27.99936 -25,-31.42857 -4.24976,-0.77268 -13.58444,-3.80229 -17.85714,-1.42857 -9.61572,5.34206 -20.13913,20.73291 -17.85715,32.14285 4.17258,20.86286 27.54561,45.08609 20.71429,67.85715 -1.84179,6.1393 -21.94835,7.85714 -28.57143,7.85714"
       inkscape:connector-curvature="0" />
    <path
       style="fill:#000000;fill-rule:evenodd;stroke:none"
       d="m 438.14286,614.6479 c 0.027,0.38039 -0.31158,0.7868 -1.03616,1.15382 -0.72458,0.36702 -1.83865,0.692 -3.31346,0.80812 -1.4748,0.11612 -3.31383,0.0196 -5.38494,-0.50874 -2.07112,-0.52834 -4.37632,-1.49265 -6.6376,-3.10452 -2.13153,-1.53155 -4.16756,-3.61228 -5.78881,-6.21982 -1.62124,-2.60754 -2.82488,-5.74284 -3.25702,-9.2264 -0.59273,-4.96341 0.4534,-10.39091 3.34724,-15.07703 0.54257,-0.87862 1.14132,-1.7184 1.79086,-2.5132 2.15023,-2.60588 4.77218,-4.62569 7.56363,-6.02494 2.79146,-1.39925 5.75055,-2.17851 8.62639,-2.39083 0,0 0,0 0,0 1.39939,-0.11125 2.56735,-0.0814 3.52975,-0.0647 0.96239,0.0168 1.71947,0.0204 2.30822,-0.10122 0.98459,-0.11232 1.97625,-0.54842 2.81705,-1.12645 0.8408,-0.57803 1.5312,-1.29944 2.01969,-2.05821 0.55365,-0.82612 0.89528,-1.76543 1.10682,-2.64905 0.21154,-0.88363 0.29299,-1.71556 0.3362,-2.43131 0.0864,-1.43149 0.0471,-2.43211 0.54357,-2.75128 0.24826,-0.15959 0.61691,-0.13498 1.08267,0.12854 0.46575,0.26353 1.029,0.76936 1.57088,1.57439 0.54189,0.80504 1.06191,1.91375 1.3463,3.32474 0.28438,1.41099 0.33172,3.1285 -0.15237,5.02647 -0.45703,1.7232 -1.34097,3.51282 -2.73775,5.10661 -1.39678,1.5938 -3.30863,2.99125 -5.71498,3.82295 -1.37639,0.42548 -2.70103,0.67847 -3.89717,0.85102 -1.19615,0.17255 -2.26353,0.26465 -3.12199,0.41168 -10e-6,0 -10e-6,0 -10e-6,0 -1.71546,0.31289 -3.46789,0.95463 -5.10781,1.90783 -1.63991,0.95321 -3.16654,2.21674 -4.37033,3.73917 -0.36951,0.4595 -0.71432,0.94942 -1.03172,1.46514 -1.69288,2.75058 -2.47821,6.00614 -2.33892,8.94851 0.0818,2.06744 0.62038,4.08772 1.42096,5.88196 0.80058,1.79423 1.86386,3.36173 3.03911,4.6373 1.23625,1.35717 2.63255,2.42498 3.97172,3.2638 1.33917,0.83883 2.62398,1.45015 3.72554,1.93557 1.10156,0.48541 2.02333,0.8481 2.6767,1.19551 0.65337,0.34741 1.04078,0.68414 1.06774,1.06453 z"
       id="path3191"
       inkscape:path-effect="#path-effect3193;#path-effect3195"
       inkscape:original-d="m 438.14286,614.6479 c -41.32107,-0.28275 -10.02077,-25.67275 -3.57143,-38.57143 0.48312,-0.96625 5.35698,0.89309 6.42857,-0.71429 3.00066,-4.50098 5.71429,-11.50816 5.71429,-15"
       inkscape:connector-curvature="0" />
    <path
       sodipodi:type="arc"
       style="fill:#000000;fill-opacity:1;stroke:#000000;stroke-width:0;stroke-miterlimit:4;stroke-opacity:1;stroke-dasharray:none"
       id="path4127"
       sodipodi:cx="369.83835"
       sodipodi:cy="542.48651"
       sodipodi:rx="28.852636"
       sodipodi:ry="25.792509"
       d="m 398.69098,542.48651 c 0,14.24481 -12.91776,25.79251 -28.85263,25.79251 -15.93487,0 -28.85264,-11.5477 -28.85264,-25.79251 0,-14.24481 12.91777,-25.79251 28.85264,-25.79251 15.93487,0 28.85263,11.5477 28.85263,25.79251 z"
       transform="matrix(0.78282828,0,0,0.85310734,146.99281,132.29234)" />
    <path
       sodipodi:type="arc"
       style="fill:#000000;fill-opacity:1;stroke:#000000;stroke-width:0;stroke-miterlimit:4;stroke-opacity:1;stroke-dasharray:none"
       id="path4131"
       sodipodi:cx="449.03738"
       sodipodi:cy="575.63794"
       sodipodi:rx="3.2787087"
       sodipodi:ry="3.5701494"
       d="m 452.31609,575.63794 c 0,1.97174 -1.46793,3.57015 -3.27871,3.57015 -1.81078,0 -3.2787,-1.59841 -3.2787,-3.57015 0,-1.97174 1.46792,-3.57015 3.2787,-3.57015 1.81078,0 3.27871,1.59841 3.27871,3.57015 z" />
  </g>
</svg>
